<svg version="1.1" id="Layer_1" xmlns="http://www.w3.org/2000/svg" xmlns:xlink="http://www.w3.org/1999/xlink" x="0px" y="0px"
	 width="100%" viewBox="0 0 496 496" enable-background="new 0 0 496 496" xml:space="preserve">
<path fill="#000000" opacity="1.000000" stroke="none" 
	d="
M241.793259,443.476013 
	C242.762497,452.766418 244.951736,461.491852 245.178162,470.377716 
	C239.026932,471.720306 237.400452,470.712860 236.593384,465.460907 
	C235.789200,460.227631 234.964355,454.997559 233.995773,448.786285 
	C230.250885,453.421051 228.363297,458.125793 225.914566,462.467804 
	C224.321182,465.293213 222.978638,468.092621 218.793472,467.162903 
	C214.797989,466.275330 214.911316,463.309937 214.561600,460.267578 
	C213.992630,455.317993 213.150543,450.399780 212.195465,443.919739 
	C209.008484,449.657654 206.407516,454.292480 203.852921,458.952728 
	C201.020248,464.120178 200.004990,464.439117 194.190918,461.635651 
	C194.844131,457.655975 197.417404,454.518768 199.236420,451.055481 
	C202.025177,445.745789 205.007629,440.535461 207.700317,435.178650 
	C209.103729,432.386719 210.894485,431.210114 214.061905,431.907837 
	C217.163818,432.591095 219.047897,433.914124 219.341873,437.412994 
	C219.785812,442.696289 220.653030,447.944061 221.531921,454.673950 
	C224.482452,449.278381 226.793167,445.030121 229.126221,440.794189 
	C230.734589,437.874115 231.994293,434.935699 236.563782,435.839539 
	C240.988983,436.714874 241.467926,439.599304 241.793259,443.476013 
z"/>
<path fill="#000000" opacity="1.000000" stroke="none" 
	d="
M357.678101,40.790619 
	C361.237152,34.767513 361.264832,34.720592 366.783661,37.976440 
	C370.789520,40.339718 374.924255,42.564022 378.620117,45.355324 
	C384.811218,50.031139 384.677429,55.844318 378.491180,60.470211 
	C376.984741,61.596672 376.375824,62.488186 376.677734,64.519203 
	C377.832367,72.286629 372.925385,76.987404 365.566681,75.004860 
	C358.592438,73.125893 352.705841,68.863983 346.532440,65.289650 
	C344.181122,63.928265 345.492584,62.208893 346.404602,60.609283 
	C350.109436,54.111115 353.805542,47.607941 357.678101,40.790619 
M356.748291,59.864559 
	C354.897522,62.695656 357.061981,63.794220 359.026978,64.684761 
	C361.752533,65.919991 364.133942,68.843109 367.624237,66.946739 
	C368.207794,66.629684 368.676849,65.589531 368.711273,64.860489 
	C368.886292,61.152611 365.592224,60.563736 363.272827,59.230103 
	C361.298096,58.094616 359.090302,55.694759 356.748291,59.864559 
M367.535431,46.401272 
	C363.999451,44.777714 362.904602,47.986588 363.109192,49.739445 
	C363.524994,53.301899 367.308533,53.935291 370.069061,55.105938 
	C372.160309,55.992779 373.514099,54.402164 374.167664,52.574986 
	C374.619263,51.312279 373.582611,50.365253 372.675781,49.684227 
	C371.228973,48.597702 369.649109,47.688389 367.535431,46.401272 
z"/>
<path fill="#000000" opacity="1.000000" stroke="none" 
	d="
M466.664551,213.313156 
	C463.737335,213.433258 461.202209,213.313934 458.759399,213.732773 
	C455.568176,214.279953 454.099060,213.292435 453.831451,209.993530 
	C453.553131,206.563171 455.207825,205.751144 458.243805,205.610184 
	C463.725433,205.355698 469.194611,204.799316 474.662781,204.300858 
	C479.014130,203.904190 480.934692,205.350494 480.030670,209.501480 
	C479.383301,212.474045 480.983887,215.128372 480.593414,217.523087 
	C479.391266,224.895096 481.342102,231.813416 482.111511,238.937103 
	C482.532013,242.830215 479.796021,245.749634 475.937500,247.117050 
	C470.463379,249.057022 464.701385,248.110214 459.087769,248.667679 
	C456.436615,248.930939 456.751312,246.409012 456.651611,244.630203 
	C456.546448,242.753876 456.394440,240.879654 459.146698,240.700043 
	C462.799774,240.461685 466.441284,240.050110 470.090607,239.747604 
	C472.720764,239.529572 474.654297,238.527039 474.644684,235.551956 
	C474.634430,232.386749 472.618896,231.109604 469.778564,231.069992 
	C466.283630,231.021225 462.777344,231.085815 459.291016,231.322983 
	C455.933136,231.551407 455.593933,229.337280 455.239349,226.913498 
	C454.800079,223.911102 456.574158,223.080154 459.033630,222.947952 
	C461.695587,222.804840 464.368256,222.833359 467.025787,222.641830 
	C470.118317,222.418915 473.485931,221.930252 473.470612,217.955658 
	C473.455658,214.079391 470.409302,213.252213 466.664551,213.313156 
z"/>
<path fill="#000000" opacity="1.000000" stroke="none" 
	d="
M102.077133,385.139557 
	C110.388489,377.838898 118.399353,377.729462 126.458504,384.618805 
	C129.494461,387.214142 132.376877,389.988556 135.399612,392.599976 
	C137.563309,394.469147 137.921204,396.044739 135.708893,398.351624 
	C129.719559,404.597137 123.929436,411.035583 118.131783,417.461975 
	C116.320152,419.470062 114.762512,419.762848 112.731255,417.725891 
	C109.559677,414.545380 106.034882,411.704254 102.986137,408.416687 
	C96.251945,401.154938 95.967537,393.534515 102.077133,385.139557 
M113.231361,387.802460 
	C109.329033,389.477631 106.358696,392.005493 106.084526,396.548279 
	C105.732437,402.382294 109.688744,405.405273 114.161629,408.499542 
	C116.700340,405.916321 119.133400,403.466492 121.537880,400.988892 
	C127.483414,394.862579 126.570900,391.212036 118.298729,388.335938 
	C116.922249,387.857391 115.390587,387.825165 113.231361,387.802460 
z"/>
<path fill="#000000" opacity="1.000000" stroke="none" 
	d="
M409.483154,369.383789 
	C417.089783,363.903412 424.884766,364.947815 429.211090,371.734528 
	C433.118469,377.864044 430.838776,385.686127 423.826233,390.049957 
	C422.991119,390.569672 422.120209,390.895416 421.521179,391.812164 
	C417.151367,398.499725 417.107941,398.511902 411.047729,393.251312 
	C407.160950,389.877319 403.191223,386.574707 399.553680,382.944550 
	C395.889557,379.287720 394.384216,374.797882 396.514954,369.738586 
	C398.948334,363.960663 403.076202,359.795044 409.068787,357.737061 
	C411.123322,357.031525 411.952515,358.530884 412.645386,360.236694 
	C413.433777,362.177612 412.957886,363.372131 411.104645,364.248260 
	C408.520477,365.469940 406.174622,367.050690 404.654327,369.554565 
	C403.411804,371.600983 402.518982,373.707794 405.020081,375.821655 
	C406.489014,373.656525 407.851471,371.648346 409.483154,369.383789 
M412.801483,376.248871 
	C410.308044,379.861877 410.937836,382.871826 414.788361,384.915619 
	C418.000214,386.620453 420.204834,384.668610 421.858368,382.204437 
	C423.282166,380.082581 423.315643,377.635986 421.393555,375.816345 
	C418.875580,373.432526 416.038818,373.553436 412.801483,376.248871 
z"/>
<path fill="#000000" opacity="1.000000" stroke="none" 
	d="
M431.350220,138.265045 
	C427.109863,141.310394 426.085815,137.599060 424.931213,135.377060 
	C424.108093,133.793091 423.670746,132.206482 422.137665,130.954468 
	C417.482697,127.152985 415.383667,122.324089 417.440887,116.338799 
	C419.130920,111.421730 425.383698,106.793564 430.545074,106.977905 
	C436.711365,107.198151 440.656769,110.720070 442.794037,116.395874 
	C443.079498,117.154022 443.405823,117.896805 443.728851,118.684807 
	C445.987488,118.459305 447.406860,116.929131 448.957520,115.766327 
	C451.366425,113.959946 453.156342,113.682083 455.084503,116.576241 
	C456.913666,119.321831 456.398865,120.930801 453.799316,122.688728 
	C446.351440,127.725319 439.019592,132.933472 431.350220,138.265045 
M424.513733,122.269775 
	C424.835541,123.027374 425.041290,123.865372 425.500397,124.527847 
	C427.015442,126.714310 429.000122,128.167648 431.787933,127.248871 
	C434.637909,126.309631 436.697083,124.537148 436.799866,121.218971 
	C436.890228,118.302078 435.270386,116.513802 432.730988,115.669518 
	C429.803467,114.696190 427.585510,116.170837 425.916718,118.452370 
	C425.255554,119.356316 424.952362,120.522110 424.513733,122.269775 
z"/>
<path fill="#000000" opacity="1.000000" stroke="none" 
	d="
M169.403107,415.049835 
	C172.995972,416.483368 173.931824,418.353455 171.957855,421.687500 
	C167.309662,429.538452 162.835251,437.495239 158.441605,445.492218 
	C157.022476,448.075226 155.534607,448.163788 153.273560,446.683014 
	C151.190918,445.319061 149.216461,444.168457 151.154800,441.255829 
	C152.339691,439.475433 153.332504,437.567200 154.337418,435.843597 
	C153.628052,434.219696 152.256714,434.630341 151.240585,434.295227 
	C145.177963,432.295929 141.779526,428.255280 141.396652,422.508698 
	C141.060410,417.461884 144.452423,411.562653 148.923889,409.417694 
	C154.003082,406.981171 159.455017,407.879608 163.968765,412.271271 
	C165.495468,413.756683 167.051971,414.668793 169.403107,415.049835 
M150.742905,425.784332 
	C152.525330,427.637848 154.430222,429.386047 157.225601,428.027313 
	C159.760086,426.795349 161.329834,424.679810 161.589798,421.812744 
	C161.833725,419.122314 160.144943,417.561249 158.076309,416.268921 
	C156.073532,415.017670 154.082108,415.457367 152.546814,416.830963 
	C150.068665,419.048126 148.655182,421.781036 150.742905,425.784332 
z"/>
<path fill="#000000" opacity="1.000000" stroke="none" 
	d="
M145.445984,72.286301 
	C146.083893,69.276817 145.129501,67.026398 143.662613,64.912338 
	C141.102356,61.222584 138.618286,57.477032 135.961273,53.858402 
	C134.160934,51.406483 133.377075,49.545971 136.583572,47.352848 
	C139.710663,45.214027 141.310730,46.373268 143.013702,48.958092 
	C145.941513,53.402073 149.203323,57.639381 151.929245,62.199951 
	C156.330215,69.562935 154.639206,76.605515 147.701813,81.313538 
	C139.381592,86.960022 132.761154,86.407120 127.089607,79.251167 
	C123.581459,74.824852 120.535080,70.035576 117.152313,65.505638 
	C115.373528,63.123631 116.177612,61.687386 118.351692,60.249817 
	C120.474945,58.845867 122.268608,57.789917 124.195045,60.629253 
	C126.995674,64.757057 129.952606,68.785606 132.984741,72.747925 
	C137.265854,78.342400 140.691025,78.267876 145.445984,72.286301 
z"/>
<path fill="#000000" opacity="1.000000" stroke="none" 
	d="
M103.154228,111.161369 
	C106.165581,118.868057 104.471336,125.567970 98.468887,130.739655 
	C93.330444,135.166931 87.615074,135.340149 80.555244,130.821884 
	C76.077614,127.956223 71.924576,124.587273 67.574310,121.517220 
	C65.020943,119.715271 65.983269,117.978172 67.360741,116.035469 
	C68.737785,114.093384 70.029892,112.587234 72.572594,114.495232 
	C76.697540,117.590523 80.848373,120.658234 85.095406,123.581970 
	C89.235817,126.432297 92.684128,126.076431 95.229156,122.796669 
	C97.744682,119.554924 97.191879,116.013138 93.254219,112.876633 
	C89.353516,109.769562 85.273117,106.869865 81.126320,104.096321 
	C78.314697,102.215797 78.523567,100.516296 80.339455,97.986160 
	C82.103371,95.528427 83.611824,95.062561 85.982643,97.042923 
	C91.579224,101.717789 98.407738,104.873291 103.154228,111.161369 
z"/>
<path fill="#000000" opacity="1.000000" stroke="none" 
	d="
M38.573254,250.747498 
	C37.169285,244.052917 38.981327,239.139175 43.761219,236.040741 
	C48.670334,232.858521 54.583332,232.940186 59.232903,236.254425 
	C64.078781,239.708588 65.450356,245.095657 63.441841,252.958511 
	C65.143929,254.250992 66.952156,253.194092 68.639397,253.001236 
	C72.010468,252.615906 73.553566,253.896118 73.807098,257.285187 
	C74.079910,260.932159 71.974930,261.276825 69.144104,261.356201 
	C60.842010,261.588959 52.546627,262.066193 44.244331,262.284760 
	C38.850334,262.426819 37.580193,260.969849 39.091038,255.756378 
	C39.634663,253.880478 39.238705,252.618073 38.573254,250.747498 
M57.609913,247.623154 
	C56.003502,243.197998 52.786076,241.277618 49.084675,242.707870 
	C45.815022,243.971313 44.462559,246.557022 45.500240,249.844269 
	C46.654232,253.500015 49.740681,254.187317 53.118607,253.592651 
	C55.931553,253.097397 57.176094,251.030518 57.609913,247.623154 
z"/>
<path fill="#000000" opacity="1.000000" stroke="none" 
	d="
M173.436172,36.420883 
	C172.111389,47.538368 172.131180,47.501244 182.044495,52.786079 
	C184.334320,54.006802 187.027527,54.703667 188.827545,57.357948 
	C186.081772,59.545410 183.612961,62.165092 179.710709,60.676792 
	C176.517517,59.458920 173.940994,56.867546 170.186432,56.021553 
	C167.933990,61.766300 170.516052,70.545006 160.296738,71.121094 
	C158.880005,67.169266 160.719040,63.431114 161.398148,59.683449 
	C162.799698,51.949001 162.908783,51.975349 156.005035,48.113079 
	C152.837341,46.340927 149.685715,44.540089 146.475449,42.723194 
	C150.350662,37.839218 150.548767,37.840118 163.891235,42.617466 
	C167.090668,38.000923 164.220078,28.538969 174.083633,28.761389 
	C174.919617,31.244217 174.067657,33.616440 173.436172,36.420883 
z"/>
<path fill="#000000" opacity="1.000000" stroke="none" 
	d="
M449.535828,174.772934 
	C441.586304,173.497406 436.726624,159.883743 437.765015,153.356934 
	C438.164398,150.846588 439.919739,150.766373 441.833740,150.751175 
	C444.185760,150.732513 445.065491,151.999374 445.035980,154.208832 
	C444.988831,157.735626 445.203918,161.230865 447.406128,164.212448 
	C448.277374,165.392029 449.209717,166.918015 450.992950,166.207504 
	C452.648865,165.547714 452.816498,163.857193 452.539520,162.356308 
	C451.964172,159.238403 451.640289,156.122635 451.584717,152.947495 
	C451.510986,148.732544 452.864136,145.523071 456.895386,143.660172 
	C460.989746,141.768097 464.528564,143.126968 467.464813,145.785431 
	C472.017273,149.907211 473.610992,155.547455 474.142914,161.465088 
	C474.363708,163.921371 472.823975,165.061951 470.417053,165.091354 
	C467.996246,165.120941 466.648041,164.091537 466.728790,161.525497 
	C466.809265,158.968246 466.123413,156.575394 464.928345,154.347824 
	C464.138550,152.875626 463.193054,151.218338 461.205383,151.623566 
	C459.002808,152.072617 459.249207,154.082458 459.368286,155.699234 
	C459.587402,158.673386 460.210907,161.628387 460.282684,164.600616 
	C460.449677,171.515427 457.013092,174.820801 449.535828,174.772934 
z"/>
<path fill="#000000" opacity="1.000000" stroke="none" 
	d="
M460.374451,311.594788 
	C456.945374,308.398407 452.730103,307.666687 448.874542,306.209869 
	C445.627136,304.982849 445.726410,303.069427 446.786621,300.332123 
	C447.843323,297.603790 449.280060,297.449432 451.791290,298.425385 
	C460.311768,301.736725 468.904236,304.865295 477.498749,307.982178 
	C480.065186,308.912903 481.438171,310.058319 480.178192,313.097992 
	C479.021210,315.889099 477.723999,317.210999 474.570892,315.733307 
	C472.836212,314.920410 471.046204,313.825378 468.786743,314.108887 
	C468.373901,316.031433 468.122253,317.994995 467.524414,319.846802 
	C465.240356,326.921814 460.291473,329.524780 453.214142,327.325195 
	C449.726654,326.241333 446.363678,324.756561 442.875519,323.675293 
	C439.795197,322.720459 439.110474,321.141968 440.199677,318.068024 
	C441.248779,315.107330 442.774353,314.621552 445.453674,315.717651 
	C448.220184,316.849457 451.072083,317.771942 453.881714,318.799500 
	C455.973053,319.564423 458.112335,320.266632 459.848724,318.213013 
	C461.449280,316.320038 462.298492,314.215729 460.374451,311.594788 
z"/>
<path fill="#000000" opacity="1.000000" stroke="none" 
	d="
M368.416046,404.505524 
	C380.580597,393.254547 395.561920,396.197601 399.635895,410.311646 
	C402.613708,420.628113 393.248047,433.050140 382.389252,433.065948 
	C380.261597,433.069061 377.719574,432.975128 377.815216,429.827301 
	C377.889587,427.379669 378.491394,425.656219 381.824524,425.421509 
	C386.568420,425.087433 390.513306,422.691864 391.549805,417.542633 
	C392.513184,412.756592 390.568176,409.053558 386.330353,406.660034 
	C381.523010,403.944824 375.763458,405.574951 373.300629,410.928253 
	C371.674133,414.463806 369.822021,416.448425 366.245300,414.230865 
	C362.834839,412.116425 365.881317,409.578522 366.564789,407.296936 
	C366.839081,406.381165 367.620728,405.617401 368.416046,404.505524 
z"/>
<path fill="#000000" opacity="1.000000" stroke="none" 
	d="
M272.870605,45.231014 
	C262.454468,47.462574 254.043854,42.190506 253.331345,33.311142 
	C252.771378,26.333111 258.123535,19.891479 265.211365,19.012810 
	C272.075958,18.161808 279.025574,22.994959 280.151886,29.403297 
	C280.982117,34.127289 280.039581,35.248215 275.048096,35.308701 
	C271.237701,35.354874 267.426239,35.317879 262.658203,35.317879 
	C265.050690,39.201286 268.297943,39.475269 271.006805,38.415733 
	C274.936279,36.878784 276.492340,38.637291 277.850525,41.628738 
	C277.147736,43.978825 275.084106,44.404652 272.870605,45.231014 
M270.201721,29.555408 
	C270.629486,27.037178 270.497955,26.656279 268.419495,26.036100 
	C265.777405,25.247751 263.681274,25.754242 262.663269,28.786493 
	C264.955597,30.328695 267.309296,29.440666 270.201721,29.555408 
z"/>
<path fill="#000000" opacity="1.000000" stroke="none" 
	d="
M45.868637,206.559875 
	C47.806461,205.929230 49.369698,205.283600 50.991646,205.055557 
	C54.741783,204.528320 56.683147,205.863678 56.018131,210.058334 
	C55.351074,214.265839 55.003357,218.523987 54.411110,223.668289 
	C59.161427,221.607681 59.304474,218.116333 58.536835,214.893646 
	C57.757332,211.621155 58.524113,209.338776 61.611900,208.891418 
	C64.759850,208.435349 64.846199,211.607086 65.370338,213.738495 
	C67.107689,220.803406 63.774643,228.401398 57.893070,231.062881 
	C51.826950,233.807892 45.298618,232.125732 41.516033,226.842972 
	C36.948811,220.464401 38.627686,212.034409 45.868637,206.559875 
M49.523636,221.110031 
	C49.505157,218.742996 50.228264,216.320526 49.079639,213.500046 
	C46.326305,214.917709 45.075596,216.923630 45.697803,219.497437 
	C46.019310,220.827377 46.299934,224.026352 49.523636,221.110031 
z"/>
<path fill="#000000" opacity="1.000000" stroke="none" 
	d="
M173.547882,444.394287 
	C170.425858,440.548248 169.166245,436.696716 170.590057,432.074860 
	C171.490952,429.150452 172.953278,428.391205 175.738388,429.535278 
	C179.996277,431.284302 184.309387,432.898834 188.854004,434.669800 
	C187.915237,430.249573 185.836823,428.305206 181.270889,428.504150 
	C177.818176,428.654602 176.571487,426.962585 176.574097,424.240784 
	C176.576859,421.368988 179.205261,421.784058 181.099182,421.705719 
	C189.287552,421.367157 196.268585,426.802795 197.240326,434.189667 
	C198.134460,440.986603 193.547806,447.378021 186.556641,448.753540 
	C181.637222,449.721466 177.426178,448.012390 173.547882,444.394287 
M184.977753,439.059265 
	C182.675034,438.128876 180.519379,436.622681 177.716995,436.900024 
	C177.979187,439.856903 179.578781,441.520782 181.882004,442.134155 
	C183.824463,442.651520 186.258118,442.845673 184.977753,439.059265 
z"/>
<path fill="#000000" opacity="1.000000" stroke="none" 
	d="
M448.500366,347.409210 
	C453.280121,350.723145 453.565613,352.467712 449.510529,355.855194 
	C448.101807,357.031982 447.504883,358.195282 446.976379,359.811768 
	C443.992065,368.939117 436.887695,371.429291 428.714600,366.298645 
	C425.897736,364.530365 423.159729,362.635925 420.333557,360.883179 
	C418.157043,359.533295 417.233551,358.099274 418.949341,355.630737 
	C420.621643,353.224762 422.258148,352.078857 425.055115,354.052185 
	C427.769653,355.967438 430.648499,357.651733 433.473419,359.408142 
	C435.714569,360.801544 437.893707,361.013184 439.619354,358.636566 
	C441.310455,356.307465 441.278198,353.810211 439.188446,351.857574 
	C437.262817,350.058258 435.008820,348.572510 432.769257,347.154266 
	C426.674469,343.294800 426.567047,342.651245 432.103638,336.790283 
	C437.394318,340.210938 442.801453,343.706879 448.500366,347.409210 
z"/>
<path fill="#000000" opacity="1.000000" stroke="none" 
	d="
M61.068840,333.264771 
	C51.530254,326.153412 51.207279,314.830902 59.971901,309.559784 
	C62.724403,307.904388 64.375267,308.137695 65.685562,311.329987 
	C67.415352,315.544312 68.653618,320.035553 71.906746,324.393585 
	C73.646683,320.198883 73.184135,316.919586 70.393539,314.381012 
	C68.055786,312.254395 68.357277,310.175842 70.027580,308.345825 
	C71.949654,306.239960 73.703842,308.247284 75.119240,309.463776 
	C80.252144,313.875305 81.733727,322.987183 78.364632,328.601044 
	C74.935310,334.315247 68.895294,336.035400 61.068840,333.264771 
M65.514297,324.302765 
	C64.279312,322.314545 64.195480,319.642700 62.080437,318.036987 
	C59.577332,321.850372 60.483471,325.621307 64.006599,326.837677 
	C66.136864,327.573151 66.255859,326.506256 65.514297,324.302765 
z"/>
<path fill="#000000" opacity="1.000000" stroke="none" 
	d="
M324.411255,452.216064 
	C315.460083,449.260864 311.465118,442.820770 313.728912,435.623260 
	C316.192413,427.790833 324.295227,423.580444 332.487946,425.875610 
	C337.395203,427.250366 341.002747,431.927826 341.340973,437.354340 
	C341.706726,443.221527 338.463837,448.626495 333.101685,450.907501 
	C330.474274,452.025146 327.716095,452.596039 324.411255,452.216064 
M323.947235,433.440094 
	C320.307007,436.409515 320.752594,439.684204 323.410553,442.938995 
	C325.388458,445.361023 327.984436,445.562103 330.508453,443.933228 
	C333.247406,442.165649 333.924744,439.514130 332.547119,436.576996 
	C330.955475,433.183533 328.539856,431.311523 323.947235,433.440094 
z"/>
<path fill="#000000" opacity="1.000000" stroke="none" 
	d="
M360.059204,439.389893 
	C352.239014,443.211578 344.677277,438.536407 342.142273,433.639160 
	C339.241669,428.035583 340.871246,420.928802 346.011780,417.116516 
	C352.647003,412.195740 359.948669,412.293030 365.050598,417.370239 
	C371.861328,424.147827 369.833740,433.735748 360.059204,439.389893 
M357.493286,421.745239 
	C356.857269,421.562012 356.231415,421.279114 355.583466,421.212982 
	C352.896149,420.938782 350.403931,421.445221 349.515411,424.337219 
	C348.563019,427.437134 349.291016,430.219238 352.008820,432.345367 
	C354.499817,434.294067 356.751221,433.466431 358.781036,431.772308 
	C361.174835,429.774414 361.197937,427.164764 359.927429,424.526642 
	C359.508331,423.656464 358.736359,422.956207 357.493286,421.745239 
z"/>
<path fill="#000000" opacity="1.000000" stroke="none" 
	d="
M390.932159,61.951607 
	C394.973694,64.206924 394.879608,66.600006 392.139648,69.596497 
	C390.014465,71.920570 388.144135,74.496941 386.331024,77.080803 
	C384.943848,79.057686 384.882568,81.131050 386.834290,82.915298 
	C388.865295,84.772079 390.977112,84.809036 393.121613,83.123344 
	C396.169373,80.727623 398.403137,77.584755 400.709198,74.546143 
	C402.750183,71.856743 404.439362,72.794434 406.526306,74.428490 
	C408.628754,76.074654 409.170013,77.476486 407.252350,79.741158 
	C403.383820,84.309761 399.587585,88.957169 396.054260,93.786240 
	C393.429047,97.374184 390.835968,96.588005 388.944611,93.715706 
	C387.360992,91.310783 385.304626,90.216690 382.948944,89.013908 
	C376.766541,85.857246 374.800323,79.715515 378.414612,73.909767 
	C380.949310,69.838188 384.217377,66.220253 387.196472,62.429993 
	C388.111176,61.266228 389.257690,60.742161 390.932159,61.951607 
z"/>
<path fill="#000000" opacity="1.000000" stroke="none" 
	d="
M474.173950,183.296356 
	C476.547607,191.699966 473.893066,198.232864 467.178375,201.204071 
	C461.017731,203.930115 454.033569,201.489410 450.495544,195.374023 
	C446.705170,188.822525 448.128418,181.065033 453.697510,176.437668 
	C458.758301,172.232666 470.288208,172.446701 474.173950,183.296356 
M462.229584,193.720825 
	C466.239929,192.950607 468.534363,190.776794 467.613953,186.477249 
	C466.909576,183.186935 464.445770,182.011292 461.286041,182.317535 
	C457.896759,182.646057 455.597992,184.617767 455.524261,187.981934 
	C455.444366,191.628082 457.663361,193.695938 462.229584,193.720825 
z"/>
<path fill="#000000" opacity="1.000000" stroke="none" 
	d="
M99.517334,364.413116 
	C97.188278,361.649414 91.413467,360.842957 95.423599,355.575562 
	C101.550598,355.630829 106.761093,360.263275 108.255974,367.025635 
	C109.706131,373.585693 106.818024,379.199249 100.546532,382.010376 
	C94.999886,384.496582 88.507927,382.638092 84.675957,377.466919 
	C80.656265,372.042450 80.722412,365.802338 84.735924,360.951630 
	C87.084488,358.113159 89.101120,357.291229 91.794601,360.774048 
	C94.481239,364.247986 96.682640,368.194763 100.205032,371.119568 
	C102.729683,368.478546 100.921402,366.619232 99.517334,364.413116 
M94.016212,372.333252 
	C92.604233,370.847198 91.816383,368.660614 89.128067,367.914520 
	C87.655754,371.935486 89.439041,374.282684 92.668190,375.456329 
	C95.185623,376.371307 95.648949,374.957520 94.016212,372.333252 
z"/>
<path fill="#000000" opacity="1.000000" stroke="none" 
	d="
M51.479382,265.755981 
	C58.340710,264.925934 63.472389,266.840118 66.337898,272.995972 
	C68.825768,278.340546 68.892509,283.707397 65.203056,288.547821 
	C61.711094,293.129150 56.782997,294.491333 51.350254,293.126373 
	C45.787731,291.728729 42.769062,287.686310 41.699211,282.174316 
	C40.559196,276.300751 41.868397,271.237244 47.017353,267.688019 
	C48.222443,266.857330 49.699242,266.420807 51.479382,265.755981 
M59.491444,282.884766 
	C60.557953,281.677795 60.877087,280.243805 60.681618,278.693024 
	C60.294361,275.620697 58.393799,273.661530 55.467285,273.548035 
	C52.052200,273.415558 49.224419,275.050659 48.481827,278.691223 
	C47.879490,281.644196 49.248718,283.922180 52.048962,285.107056 
	C54.713158,286.234314 56.864674,284.820648 59.491444,282.884766 
z"/>
<path fill="#000000" opacity="1.000000" stroke="none" 
	d="
M479.668457,270.033875 
	C477.607117,275.411835 474.137634,278.033203 468.666809,278.497620 
	C464.462677,278.854462 463.259308,277.141144 463.715454,273.376587 
	C464.232056,269.112793 464.714722,264.844879 465.350159,259.394958 
	C461.070099,261.964813 459.535645,265.206451 460.881927,268.683167 
	C462.496368,272.852478 460.337860,274.000732 457.569000,275.383942 
	C452.970612,270.867676 452.480133,264.350098 456.095428,257.981354 
	C458.960999,252.933411 464.757111,250.505173 470.625916,251.893936 
	C476.473022,253.277588 480.318542,258.315857 480.305389,264.723785 
	C480.302002,266.367828 480.001892,268.011230 479.668457,270.033875 
M472.591644,261.506256 
	C472.034393,261.112610 470.988464,260.727844 470.874878,261.285461 
	C470.283264,264.190399 468.970551,267.108887 470.161957,270.488037 
	C474.434723,268.424805 474.320038,265.406281 472.591644,261.506256 
z"/>
<path fill="#000000" opacity="1.000000" stroke="none" 
	d="
M325.001190,49.427792 
	C326.661133,48.096714 325.716309,47.230556 324.714386,46.581161 
	C323.321533,45.678371 321.786163,44.998856 320.361145,44.141663 
	C316.888184,42.052578 314.056854,39.559887 315.501221,34.907230 
	C316.958435,30.213278 320.896454,29.163937 325.012238,29.258142 
	C328.867737,29.346390 332.461853,30.887314 335.647949,33.176121 
	C337.258301,34.332932 338.580841,35.579266 336.894775,37.639408 
	C335.483582,39.363708 333.986206,40.252602 331.786682,38.656658 
	C329.510315,37.004948 327.083496,35.475582 323.699951,36.823860 
	C324.672272,40.056866 327.757355,40.649101 329.980865,41.951756 
	C333.482849,44.003426 335.116119,46.712570 334.112823,50.619026 
	C333.083496,54.627083 329.798309,56.100010 326.123352,56.166065 
	C321.175781,56.254993 316.649750,54.610519 312.753723,51.442841 
	C310.945038,49.972286 310.283783,48.445110 312.045959,46.387466 
	C313.730072,44.420959 315.261780,44.471828 317.114624,46.120285 
	C319.267822,48.035976 321.767212,49.311661 325.001190,49.427792 
z"/>
<path fill="#000000" opacity="1.000000" stroke="none" 
	d="
M229.810852,46.277489 
	C227.891998,36.263683 227.178162,26.514685 226.427505,16.768476 
	C226.226730,14.161606 227.836319,13.802179 229.871994,13.681813 
	C232.415024,13.531449 234.641129,13.809716 234.979462,16.938461 
	C235.478485,21.553537 235.859344,26.181271 236.324142,30.800232 
	C236.506073,32.608273 236.811584,34.403713 237.002670,36.211040 
	C237.289230,38.921349 238.556320,39.902710 241.372086,39.340034 
	C244.124557,38.790005 247.003967,38.896294 249.775635,38.414951 
	C252.388321,37.961220 253.500809,39.115955 253.897598,41.437405 
	C254.320953,43.914364 253.312805,45.180290 250.748413,45.358833 
	C243.857727,45.838589 237.069351,47.935612 229.810852,46.277489 
z"/>
<path fill="#000000" opacity="1.000000" stroke="none" 
	d="
M67.379799,338.946838 
	C72.732002,338.240417 77.667862,337.626160 82.595810,336.953827 
	C85.980682,336.492004 89.005508,336.211304 91.171196,339.972198 
	C93.200882,343.496979 91.231010,345.513733 89.402443,347.908142 
	C85.115341,353.521942 80.894905,359.186615 76.592148,364.904236 
	C71.332802,359.676514 71.270996,358.957184 74.980804,354.133148 
	C77.280159,351.143188 79.541656,348.124146 82.351540,344.417084 
	C77.549149,345.087830 73.657120,345.580933 69.782555,346.185852 
	C65.366096,346.875397 62.788460,345.228058 62.251591,340.705963 
	C63.636494,339.333740 65.437141,339.567047 67.379799,338.946838 
z"/>
<path fill="#000000" opacity="1.000000" stroke="none" 
	d="
M293.784546,32.236263 
	C293.843109,36.238464 290.488159,41.101372 297.430725,42.356728 
	C298.881348,42.619030 299.271179,44.977722 299.034088,46.692513 
	C298.793091,48.435234 297.218079,48.435570 295.962189,48.647354 
	C289.886688,49.671886 284.946350,45.399677 284.621918,39.214504 
	C284.387238,34.740585 287.549896,29.766539 282.813568,25.847328 
	C282.476990,25.568794 282.696777,24.571867 282.722351,23.911476 
	C282.772125,22.626434 283.400940,21.999254 284.666351,21.431107 
	C288.090149,19.893896 288.942566,12.089036 295.408569,17.807167 
	C295.313904,20.180904 295.102966,23.246145 299.267365,23.842712 
	C301.215973,24.121859 301.094635,25.872622 300.696259,27.439188 
	C300.294586,29.018690 299.618713,30.329283 297.675262,29.938910 
	C295.846222,29.571518 294.340912,29.616774 293.784546,32.236263 
z"/>
<path fill="#000000" opacity="1.000000" stroke="none" 
	d="
M480.989807,293.715210 
	C479.266144,295.918121 477.315674,293.789337 474.586273,295.231842 
	C473.681519,296.006287 474.411804,300.542633 470.037415,299.272858 
	C466.267670,298.178589 468.367157,295.171631 467.683044,292.856079 
	C465.360535,290.952545 462.220886,291.164001 459.398682,290.443115 
	C457.236755,289.890869 455.831482,291.104919 455.519531,293.232391 
	C455.103119,296.072296 452.928223,296.165314 451.046417,295.872620 
	C448.690186,295.506104 448.761444,293.353729 448.969452,291.501190 
	C449.787659,284.213013 454.678406,280.880585 461.854492,282.292938 
	C465.135529,282.938690 468.763672,285.656311 471.814789,281.498413 
	C472.094971,281.116608 473.379425,281.318329 474.151001,281.476288 
	C478.209167,282.307281 482.307800,289.307709 480.989807,293.715210 
z"/>
<path fill="#000000" opacity="1.000000" stroke="none" 
	d="
M119.526932,84.577126 
	C121.665733,89.496048 123.348747,94.228065 125.697929,98.602341 
	C128.014191,102.915337 126.513725,105.373611 122.945236,107.380051 
	C121.108009,107.122528 120.729828,105.747467 120.222267,104.563240 
	C115.182556,92.804779 110.294472,80.979050 105.078064,69.299835 
	C103.223518,65.147636 104.240150,62.739525 108.700348,60.850410 
	C113.211838,68.251434 115.724174,76.514191 119.526932,84.577126 
z"/>
<path fill="#000000" opacity="1.000000" stroke="none" 
	d="
M418.456451,97.440475 
	C422.951263,93.780983 426.671936,89.718742 431.257507,86.865761 
	C437.247253,91.280586 437.347260,92.043571 432.262817,96.553421 
	C426.053528,102.061050 419.728485,107.438332 413.531006,112.959023 
	C411.249634,114.991211 409.545959,115.264412 407.367645,112.632858 
	C405.254059,110.079498 405.591766,108.390251 407.986816,106.436531 
	C411.459503,103.603767 414.792053,100.599228 418.456451,97.440475 
z"/>
<path fill="#000000" opacity="1.000000" stroke="none" 
	d="
M106.719116,105.289581 
	C101.460556,100.398193 96.537849,95.665840 91.440338,91.129929 
	C89.014587,88.971420 89.595024,87.379837 91.546371,85.353714 
	C93.396538,83.432640 94.909500,82.332695 97.339134,84.621925 
	C103.759575,90.671333 110.253586,96.646599 116.847061,102.506508 
	C119.548691,104.907570 117.824364,106.538078 116.325996,108.364197 
	C114.820747,110.198715 113.270187,111.554901 111.022720,109.250992 
	C109.746063,107.942284 108.334190,106.765457 106.719116,105.289581 
z"/>
<path fill="#000000" opacity="1.000000" stroke="none" 
	d="
M38.456997,307.311920 
	C37.401291,304.613098 38.053017,303.224945 40.563553,302.481018 
	C49.626308,299.795593 58.669312,297.040894 67.688652,294.213043 
	C70.871208,293.215210 71.648872,295.020081 72.533730,297.493042 
	C73.552170,300.339264 72.325455,301.467316 69.906029,302.193085 
	C61.012699,304.860748 52.119480,307.529114 43.239639,310.241180 
	C40.737297,311.005463 38.979385,310.637909 38.456997,307.311920 
z"/>
<path fill="#000000" opacity="1.000000" stroke="none" 
	d="
M313.230103,456.947601 
	C313.838593,459.932434 314.804657,462.447083 314.444000,465.141113 
	C308.221863,468.411713 307.212097,467.991302 305.776428,461.546051 
	C304.013702,453.632812 302.397827,445.682861 300.424286,437.822662 
	C299.643494,434.713013 299.763641,432.738922 303.342010,431.948853 
	C307.086365,431.122101 307.830811,433.358246 308.457581,436.247406 
	C309.929352,443.032013 311.582581,449.777222 313.230103,456.947601 
z"/>
<path fill="#000000" opacity="1.000000" stroke="none" 
	d="
M43.342926,198.512543 
	C42.180653,193.346497 46.270184,189.346252 45.380985,184.415359 
	C45.167004,183.228760 46.824070,182.573944 48.041031,183.050217 
	C49.587948,183.655624 52.412979,183.105957 52.225357,185.638184 
	C51.703377,192.682800 56.622303,193.674561 61.650822,194.759674 
	C63.268803,195.108810 64.882996,195.487259 66.478355,195.926941 
	C69.428329,196.739929 69.003334,198.745316 68.449425,201.049988 
	C67.881119,203.414520 66.926102,204.552719 64.323433,203.893600 
	C57.433254,202.148743 50.515713,200.511932 43.342926,198.512543 
z"/>
<path fill="#000000" opacity="1.000000" stroke="none" 
	d="
M418.341431,85.739708 
	C419.765533,87.948822 418.471436,89.142456 417.295319,90.319977 
	C412.966919,94.653412 408.561127,98.910965 404.293396,103.302956 
	C402.163239,105.495140 400.512421,105.137665 398.452850,103.141212 
	C396.250946,101.006737 396.424591,99.370277 398.538055,97.348167 
	C402.603668,93.458412 406.700653,89.576889 410.460602,85.400253 
	C413.268524,82.281143 415.572693,82.221146 418.341431,85.739708 
z"/>
<path fill="#000000" opacity="1.000000" stroke="none" 
	d="
M442.081055,337.001068 
	C440.108063,336.019684 438.496918,335.141205 436.822235,334.407684 
	C434.201019,333.259644 433.399384,331.749054 434.810760,328.932190 
	C436.233948,326.091675 437.732666,325.357239 440.650787,326.951965 
	C445.613800,329.664246 450.701538,332.159119 455.813568,334.583618 
	C458.678833,335.942535 460.005157,337.443604 458.284241,340.744415 
	C456.642334,343.893616 454.766937,343.529205 452.215973,342.114410 
	C449.018158,340.340881 445.687653,338.806519 442.081055,337.001068 
z"/>
<path fill="#000000" opacity="1.000000" stroke="none" 
	d="
M208.826599,43.509918 
	C206.011459,46.321846 203.159012,46.103603 200.446945,44.277901 
	C198.402359,42.901524 197.378937,40.741600 197.884567,38.206417 
	C198.426270,35.490376 200.248444,33.902721 202.906189,33.295441 
	C205.249542,32.759998 207.231888,33.622299 208.686600,35.362698 
	C210.727661,37.804585 210.761063,40.500011 208.826599,43.509918 
z"/>
<path fill="#000000" opacity="1.000000" stroke="none" 
	d="
M58.862728,164.084290 
	C59.947678,159.527756 62.742470,157.960098 66.727806,158.896027 
	C69.821098,159.622467 71.387222,161.940430 71.257324,165.149994 
	C71.122574,168.479675 68.998329,170.379379 65.974129,170.788025 
	C61.428112,171.402298 59.414944,168.624771 58.862728,164.084290 
z"/>
<path fill="#000000" opacity="1.000000" stroke="none" 
	d="
M283.263489,446.194794 
	C285.024780,449.994385 284.789948,453.054565 281.236755,455.124451 
	C278.389801,456.782928 275.677185,456.260925 273.664703,453.722870 
	C271.703278,451.249298 271.672516,448.487152 273.607330,445.895721 
	C275.881958,442.849091 279.274872,442.863861 283.263489,446.194794 
z"/>
<path fill="#000000" opacity="1.000000" stroke="none" 
	d="
M307.938232,31.457180 
	C306.474121,31.189589 304.521179,30.981569 305.084351,29.729839 
	C306.690247,26.160564 306.351654,22.466713 306.799896,18.799061 
	C307.132416,16.078104 309.723114,15.247986 312.254425,15.874483 
	C315.037842,16.563381 316.751495,18.657894 315.792023,21.449720 
	C314.401215,25.496687 312.420319,29.360329 307.938232,31.457180 
z"/>
<path fill="#000000" opacity="1.000000" stroke="none" 
	d="
M426.779175,79.295822 
	C426.674805,82.932495 424.873108,84.533470 421.696686,84.170021 
	C419.365692,83.903305 417.804535,82.486725 417.580597,79.957405 
	C417.387390,77.775009 417.993805,75.842720 420.189819,75.170349 
	C423.519440,74.150879 425.460754,76.031898 426.779175,79.295822 
z"/>
<path fill="#000000" opacity="1.000000" stroke="none" 
	d="
M460.649658,346.075653 
	C459.269958,342.329163 461.105743,340.325409 463.895477,339.119629 
	C465.812225,338.291199 467.457947,339.343506 468.475586,341.061523 
	C469.887299,343.444855 469.121918,345.625824 467.232544,347.260284 
	C464.929565,349.252625 462.692810,348.687012 460.649658,346.075653 
z"/>
</svg>