<svg version="1.1" id="Layer_1" xmlns="http://www.w3.org/2000/svg" xmlns:xlink="http://www.w3.org/1999/xlink" x="0px" y="0px"
	 width="100%" viewBox="0 0 496 496" enable-background="new 0 0 496 496" xml:space="preserve">
<path fill="#000000" opacity="1.000000" stroke="none" 
	d="
M227.302979,457.356445 
	C229.292999,453.659973 231.082443,450.274811 232.927383,446.920135 
	C233.605026,445.687958 234.568420,444.794861 236.151794,445.125793 
	C237.681519,445.445526 238.997940,445.965302 239.325562,447.794708 
	C241.692749,461.012665 244.435913,474.166443 246.059509,487.509674 
	C246.092300,487.779144 245.790314,488.089355 245.519012,488.631195 
	C242.595123,489.161224 241.141190,487.993561 240.631897,484.870178 
	C238.977722,474.725555 237.141373,464.610626 235.142105,453.148132 
	C232.689911,457.638153 230.733566,461.141449 228.851593,464.684265 
	C225.883987,470.270782 223.001389,475.902679 220.004761,481.473328 
	C219.185104,482.997040 218.670746,484.993622 216.111908,484.559021 
	C213.596985,484.131866 213.077789,482.373260 212.717316,480.286438 
	C210.993835,470.309143 209.222809,460.340088 207.400635,449.981232 
	C205.439743,450.730164 204.996689,452.389648 204.287262,453.743622 
	C200.269562,461.411407 196.286270,469.097290 192.302902,476.783020 
	C191.104706,479.094879 189.913651,481.365723 186.676331,479.652893 
	C185.759003,477.761841 187.035400,476.398315 187.754181,474.998993 
	C193.002731,464.780975 198.320282,454.598419 203.602234,444.397552 
	C204.610916,442.449493 205.461273,440.338196 208.318802,440.923462 
	C210.784668,441.428497 211.082062,443.308075 211.449844,445.399902 
	C212.973297,454.065063 214.636230,462.705872 216.288544,471.347870 
	C216.494919,472.427277 216.943100,473.460419 217.654297,475.691681 
	C221.146576,469.049438 224.135468,463.364594 227.302979,457.356445 
z"/>
<path fill="#000000" opacity="1.000000" stroke="none" 
	d="
M253.050018,15.650107 
	C256.989990,15.809539 260.471802,15.340598 263.890045,16.529482 
	C272.388824,19.485376 274.647980,26.477289 269.348053,33.763702 
	C268.876465,34.412006 268.424011,35.074196 268.267242,35.297054 
	C269.646729,36.901688 270.924500,38.184040 271.967285,39.635242 
	C277.299377,47.055706 272.553894,56.610134 262.973938,57.206158 
	C256.188446,57.628315 249.354919,57.247650 242.543365,57.296963 
	C239.809769,57.316753 238.661606,56.079823 238.692825,53.371132 
	C238.823029,42.073811 238.897247,30.775766 238.962433,19.477818 
	C238.980637,16.324598 240.431808,14.964889 243.620392,15.238038 
	C246.594864,15.492846 249.588699,15.521656 253.050018,15.650107 
M245.420410,38.806149 
	C243.215897,42.496662 244.560730,46.512871 244.410110,50.383297 
	C244.346771,52.010651 245.607773,52.670982 247.084671,52.672821 
	C252.047409,52.678997 257.034943,52.913822 261.964539,52.493053 
	C265.384277,52.201153 268.545441,50.606976 268.583374,46.421700 
	C268.619446,42.444042 266.528168,40.031307 262.527771,39.135262 
	C257.109161,37.921551 251.661163,38.422569 245.420410,38.806149 
M259.783325,20.349876 
	C255.798859,20.302080 251.814468,20.241831 247.829865,20.212057 
	C246.004639,20.198418 244.770309,20.711279 244.352280,22.875418 
	C242.638092,31.749599 244.148041,33.716228 253.085388,33.777782 
	C254.745804,33.789219 256.406464,33.764797 258.067017,33.753300 
	C262.292999,33.724045 265.761963,32.333218 266.530670,27.748117 
	C267.263031,23.379862 264.207733,21.576971 259.783325,20.349876 
z"/>
<path fill="#000000" opacity="1.000000" stroke="none" 
	d="
M407.574463,368.390442 
	C401.003021,361.206390 401.301483,354.051025 408.262085,345.945435 
	C410.114899,343.787842 412.212067,341.877289 414.702850,340.474915 
	C416.174744,339.646149 417.857452,338.796509 419.065186,340.759888 
	C420.300415,342.767944 418.862244,343.659241 417.264893,344.563599 
	C413.864746,346.488647 411.178253,349.190582 409.350189,352.668274 
	C406.149414,358.757294 407.467896,362.595520 414.265381,366.140472 
	C414.598724,359.859406 416.528290,354.374359 421.655090,350.557739 
	C424.408356,348.508087 427.530182,347.538574 431.004333,347.687897 
	C438.456329,348.008270 444.384705,353.259369 445.788849,360.853302 
	C447.097168,367.928833 442.579559,375.011993 434.138428,378.834900 
	C434.383514,380.574677 437.421143,382.246124 434.810486,384.235626 
	C432.543091,385.963562 431.106598,383.785400 429.580658,382.810272 
	C422.293396,378.153564 415.086975,373.370361 407.574463,368.390442 
M435.065704,354.122070 
	C428.690063,352.144653 424.857635,352.979370 421.718719,357.262024 
	C418.834656,361.196991 418.071014,365.505890 420.772949,369.792053 
	C423.178528,373.608124 426.814606,375.454224 431.402679,374.699677 
	C436.143066,373.920105 439.235107,370.926971 440.424194,366.451569 
	C441.730377,361.535309 440.485992,357.226349 435.065704,354.122070 
z"/>
<path fill="#000000" opacity="1.000000" stroke="none" 
	d="
M78.572556,411.385986 
	C73.273140,405.095886 69.409218,398.769958 71.449799,390.298309 
	C75.114723,375.083069 92.342110,368.774872 104.712807,378.333405 
	C109.875298,382.322357 113.739632,387.613556 118.088188,392.414154 
	C119.784554,394.286865 118.945457,395.644318 117.393440,397.031586 
	C108.719490,404.784912 100.024338,412.515656 91.443520,420.371094 
	C89.236671,422.391357 87.805359,421.829712 86.121910,419.830048 
	C83.767952,417.033905 81.251976,414.374115 78.572556,411.385986 
M109.281982,396.928284 
	C110.312241,395.883362 111.727890,395.139130 112.027512,393.241241 
	C108.727737,388.822449 105.131737,384.491119 100.291962,381.389038 
	C95.382736,378.242432 90.088791,377.991913 85.093079,380.675598 
	C79.892738,383.469208 76.414337,387.775879 76.143478,394.142914 
	C75.724548,403.990814 83.415298,408.714905 88.499008,415.605530 
	C95.680176,409.161530 102.234398,403.280121 109.281982,396.928284 
z"/>
<path fill="#000000" opacity="1.000000" stroke="none" 
	d="
M453.162170,151.097382 
	C458.720673,156.481445 460.404358,162.417007 456.808960,169.491089 
	C462.876953,172.465912 466.982269,176.616318 467.368011,183.588287 
	C467.680328,189.232971 464.795258,192.791382 460.094818,194.984436 
	C455.124329,197.303467 449.964630,199.219971 444.868622,201.265045 
	C443.345428,201.876328 441.663422,202.772369 440.741089,200.376770 
	C439.917755,198.238098 441.180756,197.354645 442.902039,196.670547 
	C447.077179,195.011139 451.278046,193.406738 455.391724,191.604767 
	C461.303223,189.015244 463.343140,185.299149 461.761353,180.409424 
	C460.085449,175.228729 455.919464,172.861633 449.794952,174.471619 
	C445.325562,175.646500 441.111115,177.785492 436.773743,179.470840 
	C434.931702,180.186584 432.850281,181.414917 431.859619,178.465363 
	C431.031921,176.001022 432.976227,175.376175 434.730438,174.670822 
	C439.052399,172.932999 443.437408,171.321075 447.643433,169.333420 
	C453.274109,166.672485 454.760559,163.111206 452.745117,158.124313 
	C450.786713,153.278458 446.195251,151.056915 440.873779,152.790024 
	C436.451202,154.230331 432.180267,156.133865 427.832245,157.806488 
	C426.132599,158.460327 424.230957,159.481750 423.197968,156.969147 
	C422.126312,154.362427 424.395996,153.868881 425.994812,153.191788 
	C433.350708,150.076736 440.730865,147.018265 448.127502,144.001160 
	C449.291412,143.526398 450.696411,142.628555 451.786316,143.985291 
	C452.644653,145.053802 453.053955,146.512451 451.887939,147.624435 
	C449.879913,149.539398 451.812531,150.045090 453.162170,151.097382 
z"/>
<path fill="#000000" opacity="1.000000" stroke="none" 
	d="
M353.675964,85.855469 
	C345.688049,82.533508 341.150665,76.330246 341.797668,70.000511 
	C342.596985,62.180531 348.203461,55.322487 355.655334,54.397530 
	C363.715668,53.397053 369.760284,56.991055 373.253784,65.041138 
	C376.600220,61.890312 378.094482,58.006824 380.263580,54.598862 
	C381.178986,53.160648 382.105621,51.706402 384.210632,52.776299 
	C386.297180,53.836800 385.926727,55.323887 384.970795,56.922005 
	C378.235260,68.182793 371.501434,79.444626 364.740723,90.690292 
	C364.503693,91.084541 363.990265,91.312599 363.653503,91.580116 
	C360.343811,91.342186 360.071930,89.216438 360.604828,86.590515 
	C358.310913,86.379601 356.182587,86.183914 353.675964,85.855469 
M353.105804,80.613358 
	C359.691620,82.827515 364.554840,81.185646 367.537445,75.741074 
	C370.423126,70.473373 369.633057,65.278824 365.423279,61.840595 
	C360.505524,57.824139 353.989105,58.500603 349.939545,63.447990 
	C345.446991,68.936531 346.411041,75.445465 353.105804,80.613358 
z"/>
<path fill="#000000" opacity="1.000000" stroke="none" 
	d="
M132.552826,442.822968 
	C124.802277,438.707916 121.612030,432.946472 122.822701,425.720917 
	C123.964027,418.909210 129.919571,413.031158 136.829102,411.896729 
	C143.167953,410.855988 149.654388,414.813995 154.109192,422.664276 
	C155.778610,422.307556 157.793259,420.100098 159.475449,422.696655 
	C160.955307,424.980896 158.998489,426.458252 158.038727,428.012543 
	C152.104263,437.623199 146.097504,447.190186 140.005325,456.701599 
	C138.979141,458.303711 138.238449,461.334747 135.273956,459.425598 
	C132.447174,457.605164 134.597672,455.645691 135.612488,453.905243 
	C137.437759,450.774811 139.395950,447.721893 141.682526,444.014038 
	C138.223221,444.355865 135.540604,443.791260 132.552826,442.822968 
M144.251373,437.880493 
	C146.191986,436.523926 147.862000,434.884491 148.756805,432.674286 
	C150.403610,428.606689 150.731293,424.515411 147.608063,420.983276 
	C144.867554,417.883942 141.511719,415.673889 137.093399,416.778992 
	C130.616119,418.399078 126.299492,425.926575 128.279495,431.863220 
	C130.387466,438.183472 136.700317,440.819061 144.251373,437.880493 
z"/>
<path fill="#000000" opacity="1.000000" stroke="none" 
	d="
M56.823326,197.042999 
	C64.499107,204.792358 64.527252,212.928650 56.980030,221.847977 
	C59.998108,224.278641 63.823708,223.747055 67.157402,224.749512 
	C68.894119,225.271759 71.018471,225.359634 70.416298,228.081757 
	C69.831070,230.727295 67.944702,230.170441 66.086823,229.807571 
	C54.851902,227.613342 43.607166,225.469254 32.375637,223.257980 
	C30.490814,222.886917 28.121325,222.829208 28.423899,219.883804 
	C28.718704,217.014038 31.136484,218.348145 32.673176,217.967163 
	C29.208357,208.627640 30.512814,201.472885 36.507042,196.614197 
	C41.772606,192.346146 49.441975,192.422531 56.823326,197.042999 
M40.565769,199.912949 
	C35.313274,204.041550 33.746265,209.201157 36.206310,214.267120 
	C38.538071,219.068893 44.546734,221.682846 49.714809,220.143723 
	C55.328918,218.471756 58.271915,213.987701 57.707493,207.965851 
	C57.042309,200.868988 49.614082,197.083649 40.565769,199.912949 
z"/>
<path fill="#000000" opacity="1.000000" stroke="none" 
	d="
M410.518768,114.008453 
	C405.725891,121.333588 399.786957,122.587395 392.964905,117.884453 
	C387.744446,114.285599 383.921326,109.578194 382.245728,103.330498 
	C381.751190,101.486717 381.304443,99.588150 383.777863,98.825920 
	C386.346344,98.034401 386.388947,100.245178 386.803680,101.708443 
	C388.328857,107.089470 391.496704,111.228767 396.177765,114.170815 
	C398.718384,115.767586 401.432831,116.375526 403.997345,114.069023 
	C406.387482,111.919365 406.149628,109.233444 404.995880,106.736549 
	C403.395966,103.274002 401.340515,100.025269 399.606995,96.620384 
	C396.474518,90.467751 396.928406,85.496384 400.818634,81.975204 
	C405.027374,78.165733 409.958069,78.213043 415.903595,81.999443 
	C420.586029,84.981445 423.803711,89.036552 425.477722,94.341354 
	C425.998077,95.990318 425.924286,97.340019 424.079468,97.965240 
	C422.355194,98.549622 421.663269,97.302208 421.154053,96.026993 
	C419.441345,91.737862 416.957367,88.066940 412.830994,85.776917 
	C410.089142,84.255287 407.185822,83.356369 404.501648,85.807617 
	C401.793854,88.280403 402.442474,91.223473 403.904663,94.028030 
	C405.672424,97.418671 407.729370,100.660683 409.445892,104.075226 
	C410.951263,107.069740 412.107880,110.220222 410.518768,114.008453 
z"/>
<path fill="#000000" opacity="1.000000" stroke="none" 
	d="
M473.811218,287.537720 
	C470.325714,292.551056 465.433350,293.362122 460.308167,293.013580 
	C455.675812,292.698517 451.078735,291.861023 446.467041,291.246765 
	C444.564911,290.993469 442.659210,290.625519 442.911133,288.070465 
	C443.179016,285.352814 445.284149,285.704102 447.083832,285.906403 
	C452.033875,286.462738 456.957520,287.390900 461.919678,287.665771 
	C467.386505,287.968567 470.583649,284.974548 471.409607,279.541290 
	C472.042480,275.377869 469.296265,270.629456 464.841156,269.550110 
	C460.022186,268.382599 455.014648,267.983276 450.082672,267.296997 
	C448.084991,267.019012 445.728607,267.069244 445.943817,264.188354 
	C446.169250,261.171387 448.637787,261.695923 450.535889,261.936920 
	C462.568359,263.464539 474.587311,265.098175 486.614899,266.664551 
	C488.335266,266.888611 490.146271,266.950104 489.827423,269.397583 
	C489.544250,271.571259 488.097198,271.854797 486.157562,271.600952 
	C482.261505,271.091064 478.340698,270.770630 473.703461,270.297943 
	C476.339752,276.356415 476.918610,281.821777 473.811218,287.537720 
z"/>
<path fill="#000000" opacity="1.000000" stroke="none" 
	d="
M188.215088,443.340332 
	C188.316025,451.148193 185.725235,457.035645 178.814362,460.491211 
	C172.846329,463.475311 167.506226,461.918335 162.587448,458.105255 
	C157.647766,454.275970 155.876053,447.299744 157.984497,441.436646 
	C158.928406,438.811859 160.469040,438.804871 162.636230,439.729980 
	C167.218552,441.686066 171.815002,443.615631 176.461319,445.412079 
	C178.263062,446.108673 179.975891,447.351349 182.082718,446.959625 
	C184.084579,439.646210 179.242310,434.168488 170.967361,433.981110 
	C168.883820,433.933960 165.045303,436.196411 165.108734,432.053284 
	C165.160278,428.686768 169.160385,429.127625 171.563293,429.082153 
	C179.605927,428.930054 185.419907,433.960083 188.215088,443.340332 
M170.297516,457.150238 
	C174.866409,458.005249 178.140579,456.339447 180.848846,451.843109 
	C174.570267,449.282166 168.838654,446.944305 163.027908,444.574188 
	C161.492188,450.977783 163.143875,453.878723 170.297516,457.150238 
z"/>
<path fill="#000000" opacity="1.000000" stroke="none" 
	d="
M81.060349,344.873230 
	C87.910202,351.980896 89.505692,359.142853 85.981583,365.915619 
	C82.966934,371.709290 75.473320,375.427155 68.639404,374.319183 
	C61.705639,373.195007 57.947922,368.554443 56.215405,362.156799 
	C54.653744,356.390045 57.094311,351.734009 61.090466,347.777222 
	C63.762745,345.131256 65.967499,345.001526 68.053406,348.799500 
	C71.250671,354.621033 74.878540,360.206055 78.322197,365.889008 
	C83.972649,362.454987 84.111633,354.028595 78.876839,349.273926 
	C78.143509,348.607849 77.271622,348.087219 76.435234,347.543304 
	C74.873306,346.527496 72.161430,346.042114 73.857124,343.291260 
	C75.245941,341.038239 77.085854,342.634766 78.677711,343.299805 
	C79.432442,343.615143 80.079720,344.187683 81.060349,344.873230 
M73.296730,365.928131 
	C70.521843,361.251099 67.746956,356.574066 64.952286,351.863678 
	C60.313129,355.241394 59.339607,358.979523 61.547558,363.689941 
	C63.431892,367.709930 68.361092,370.439819 72.105255,369.717102 
	C74.257149,369.301697 74.430679,368.214355 73.296730,365.928131 
z"/>
<path fill="#000000" opacity="1.000000" stroke="none" 
	d="
M145.287170,56.439999 
	C146.934464,56.960907 148.268158,57.232491 149.439728,57.824791 
	C152.462387,59.352982 155.831085,61.305447 156.100815,64.713608 
	C156.348434,67.842117 152.396576,68.504234 150.141769,69.973183 
	C145.604202,72.929329 140.882370,75.602654 136.073273,78.490738 
	C138.450073,83.016655 141.873108,83.129669 145.430832,82.784714 
	C149.138046,82.425247 151.857742,80.441818 154.170059,77.581367 
	C155.404831,76.053871 155.647720,71.923088 158.808243,74.145172 
	C161.489517,76.030304 159.050385,78.665642 157.735611,80.577324 
	C153.128662,87.275917 143.872040,89.836884 136.974869,86.494186 
	C129.834442,83.033600 125.949059,74.753349 127.942192,67.244415 
	C129.782516,60.311253 137.089722,55.611004 145.287170,56.439999 
M134.833130,64.385780 
	C132.716095,67.474594 130.990433,70.608231 133.496292,74.316208 
	C138.484543,72.726540 146.970123,67.359802 149.725510,64.116959 
	C145.001053,59.485828 141.514969,59.418827 134.833130,64.385780 
z"/>
<path fill="#000000" opacity="1.000000" stroke="none" 
	d="
M411.162750,398.932556 
	C421.942017,412.460663 412.981506,429.762115 399.561981,433.563568 
	C398.609772,433.833313 397.643433,434.192017 396.673248,434.227966 
	C395.057800,434.287750 393.142639,434.580963 392.911255,432.125641 
	C392.713074,430.022552 394.304016,429.760681 395.803314,429.475677 
	C400.566406,428.570282 404.537750,426.455292 407.351593,422.337860 
	C411.135559,416.800842 412.190887,410.858093 408.890503,404.958801 
	C405.472992,398.850159 399.987793,395.555603 392.735107,396.355896 
	C385.864655,397.114014 381.160492,400.966583 378.411255,407.253204 
	C378.147095,407.857269 378.047607,408.531403 377.842072,409.163391 
	C377.324341,410.755554 376.902100,412.616638 374.611908,412.072815 
	C371.912231,411.431793 372.647980,409.290894 373.157227,407.634521 
	C375.756012,399.181732 381.363129,393.661987 389.934113,391.473541 
	C398.401703,389.311493 405.205109,392.551025 411.162750,398.932556 
z"/>
<path fill="#000000" opacity="1.000000" stroke="none" 
	d="
M60.873192,168.794495 
	C58.651432,174.668304 56.582973,180.189255 54.475185,185.815170 
	C62.761410,187.348495 68.967911,180.975525 68.152756,172.705826 
	C67.969635,170.848099 66.659508,168.281097 69.670036,167.861450 
	C72.584793,167.455154 72.247047,170.371811 72.632233,172.140671 
	C74.232056,179.487427 68.578552,188.592712 61.120369,190.880127 
	C53.418938,193.242157 44.414539,188.988647 41.282772,181.509216 
	C38.294079,174.371506 41.571800,165.535110 48.538052,161.892227 
	C50.806496,160.705963 53.189896,160.229172 55.744007,160.408615 
	C62.868332,160.909225 63.529411,161.895233 60.873192,168.794495 
M48.331421,182.910110 
	C49.569057,183.718430 50.684147,183.448166 51.202801,182.154877 
	C53.339043,176.828064 55.818325,171.610748 57.158630,165.822617 
	C52.317455,164.421127 48.959385,166.041473 46.646393,169.805969 
	C43.924603,174.235825 43.960159,178.586960 48.331421,182.910110 
z"/>
<path fill="#000000" opacity="1.000000" stroke="none" 
	d="
M467.284119,231.643097 
	C460.374939,234.220001 459.759369,233.811707 458.740540,226.865128 
	C457.880768,221.002960 456.898438,215.158737 455.966736,209.283737 
	C448.291809,211.032974 445.744049,219.633835 450.128265,226.572052 
	C451.166016,228.214340 455.003448,229.946259 451.805237,232.099411 
	C448.718140,234.177719 447.167114,230.596771 445.999054,228.475311 
	C441.194519,219.749359 442.023865,205.805969 457.452698,202.937119 
	C463.977905,201.723816 471.741699,206.031799 474.144562,212.076645 
	C477.164642,219.674210 474.868683,226.490387 467.284119,231.643097 
M460.442322,210.018967 
	C461.261169,215.826431 461.594330,221.739624 463.660645,227.350464 
	C467.135529,226.764191 468.871307,224.791992 469.898743,222.265503 
	C471.456818,218.434341 471.107544,214.615555 468.241913,211.556656 
	C466.306335,209.490585 464.129333,206.810486 460.442322,210.018967 
z"/>
<path fill="#000000" opacity="1.000000" stroke="none" 
	d="
M53.424728,307.022949 
	C60.181313,301.643890 60.599045,294.855927 54.798309,288.355011 
	C53.657646,287.076660 52.123432,285.924530 53.819210,284.201111 
	C55.485535,282.507629 56.862976,283.963989 58.106277,285.034729 
	C63.424515,289.614960 64.994232,299.472534 61.436478,305.710754 
	C57.747429,312.179230 49.257420,315.615021 42.535366,313.359802 
	C34.691460,310.728210 30.668755,304.224152 31.721851,295.876129 
	C32.392975,290.556091 37.291672,285.173859 42.449192,283.840637 
	C45.077995,283.161102 46.066063,284.274231 46.577702,286.657867 
	C47.762932,292.179718 49.029232,297.686432 50.401615,303.164459 
	C50.795864,304.738129 50.413357,307.059814 53.424728,307.022949 
M38.745609,305.692322 
	C41.085552,307.983490 43.647072,309.422028 47.371342,308.001160 
	C45.882805,301.722626 44.452106,295.688049 43.007259,289.593811 
	C35.985798,292.091888 34.483643,297.617554 38.745609,305.692322 
z"/>
<path fill="#000000" opacity="1.000000" stroke="none" 
	d="
M30.508549,259.489899 
	C25.080326,252.370743 24.558451,245.649323 28.668091,238.904282 
	C31.711864,233.908615 38.820564,231.138321 45.233067,232.448822 
	C52.442593,233.922211 56.812782,238.085175 57.992554,245.261353 
	C59.118874,252.112396 56.499264,257.651611 50.941315,261.701874 
	C46.107754,265.224274 38.439705,265.145660 33.052364,261.684662 
	C32.222588,261.151611 31.528513,260.407288 30.508549,259.489899 
M44.873135,258.637451 
	C51.071091,256.648865 54.324986,252.114105 53.559807,246.531357 
	C52.791225,240.923782 48.184055,237.334152 41.734619,237.317886 
	C35.696651,237.302658 31.802452,240.625977 30.714008,246.722916 
	C29.466270,253.712097 35.189564,258.854340 44.873135,258.637451 
z"/>
<path fill="#000000" opacity="1.000000" stroke="none" 
	d="
M351.233948,418.203674 
	C357.221069,413.350098 363.545197,412.025604 370.109436,415.554321 
	C375.809418,418.618439 378.686981,423.823547 378.633057,430.368622 
	C378.578827,436.944031 374.127838,442.814911 367.736115,445.090363 
	C361.033264,447.476562 354.976410,445.774933 350.287506,440.188324 
	C345.855682,434.908051 345.023621,427.795593 348.269684,422.039886 
	C348.997498,420.749359 350.053894,419.644135 351.233948,418.203674 
M353.311768,422.936981 
	C350.206329,428.927429 350.742188,433.154022 355.207062,437.885315 
	C358.261810,441.122345 363.305908,441.957764 367.572632,439.854370 
	C371.493774,437.921326 373.618958,434.780457 373.650726,430.345032 
	C373.683838,425.722168 370.429718,420.890564 365.898651,419.100342 
	C361.109070,417.208069 357.158997,418.851532 353.311768,422.936981 
z"/>
<path fill="#000000" opacity="1.000000" stroke="none" 
	d="
M406.947327,131.617020 
	C407.278748,120.817520 414.692017,113.299873 424.103943,113.739288 
	C432.601166,114.136002 439.609253,122.092323 439.334290,131.030441 
	C439.131409,137.625992 433.988861,143.886154 427.158325,145.852493 
	C421.104828,147.595154 413.748413,144.803909 410.052582,139.366165 
	C408.531738,137.128479 407.667572,134.621307 406.947327,131.617020 
M428.117035,139.717102 
	C433.865601,135.660889 435.730103,131.705994 434.156219,126.907310 
	C432.088287,120.602524 425.975708,117.449875 419.907776,119.558449 
	C413.965179,121.623466 410.583038,128.243469 412.540985,133.977798 
	C414.645081,140.140182 420.642059,142.583206 428.117035,139.717102 
z"/>
<path fill="#000000" opacity="1.000000" stroke="none" 
	d="
M327.549744,461.990540 
	C318.242676,458.925873 313.332214,451.810242 314.493469,443.564514 
	C315.546265,436.088562 321.922119,430.117889 329.301270,429.697723 
	C338.867065,429.152985 346.266846,436.150665 346.352478,445.822357 
	C346.441010,455.821411 338.787354,462.585724 327.549744,461.990540 
M339.973572,440.657867 
	C334.410645,432.853394 325.815033,432.243011 321.181671,439.323425 
	C318.231201,443.832092 318.903290,449.672974 322.864441,453.947784 
	C326.534607,457.908569 331.517029,458.532745 336.356659,455.638031 
	C341.136780,452.778961 342.476776,447.949310 339.973572,440.657867 
z"/>
<path fill="#000000" opacity="1.000000" stroke="none" 
	d="
M306.909882,60.627937 
	C306.172150,62.271221 306.309174,64.201874 304.119751,64.030205 
	C301.982208,63.862610 301.616638,62.167847 301.457001,60.050938 
	C295.960022,62.823311 290.860016,62.376167 285.958588,59.613327 
	C281.631744,57.174374 279.311859,53.258614 279.932800,48.427258 
	C280.692383,42.517128 282.266541,36.712250 283.472687,30.858604 
	C283.835724,29.096607 284.388458,27.543795 286.663635,27.962278 
	C289.038208,28.399048 288.788605,30.088150 288.420288,31.822914 
	C287.453888,36.374889 286.418365,40.914478 285.568878,45.488438 
	C284.449219,51.517246 286.458344,55.360977 291.198486,56.621620 
	C297.260986,58.233940 301.811340,55.902225 303.600800,49.822075 
	C304.909912,45.374126 305.706238,40.773853 306.694000,36.233395 
	C307.106079,34.339096 307.589783,32.434841 310.104523,32.936928 
	C312.774475,33.470005 312.105011,35.448597 311.723145,37.290310 
	C310.138214,44.934280 308.597900,52.587502 306.909882,60.627937 
z"/>
<path fill="#000000" opacity="1.000000" stroke="none" 
	d="
M432.837494,334.967316 
	C437.040558,336.700531 440.838867,338.411560 444.740204,339.841461 
	C450.530670,341.963806 454.324524,340.435791 456.681213,335.286774 
	C458.965698,330.295441 457.430847,325.207520 452.320038,322.586334 
	C448.191925,320.469086 443.719757,319.031830 439.456024,317.165405 
	C437.760620,316.423279 435.167450,315.981293 436.521423,313.072052 
	C437.684845,310.572296 439.587250,311.835510 441.214294,312.478058 
	C448.486481,315.349945 455.748413,318.248749 462.985382,321.208038 
	C464.435364,321.800964 466.467407,322.151978 465.950806,324.501740 
	C465.437927,326.834534 463.777313,327.166077 461.028076,325.884308 
	C462.511261,330.044769 462.419464,333.409302 461.215088,336.787842 
	C458.463470,344.506958 452.575470,347.778137 444.803558,345.319336 
	C439.902435,343.768768 435.163849,341.683319 430.410065,339.699554 
	C428.701355,338.986511 426.250519,338.529602 427.475250,335.575775 
	C428.739899,332.525757 430.718262,334.449310 432.837494,334.967316 
z"/>
<path fill="#000000" opacity="1.000000" stroke="none" 
	d="
M211.363419,61.865917 
	C207.105835,63.101685 203.159027,63.694672 199.137024,63.223103 
	C197.178497,62.993465 194.694687,62.749969 194.990158,60.011749 
	C195.329132,56.870472 197.716415,57.983913 199.637024,58.372902 
	C203.345840,59.124073 206.927567,58.754406 210.316376,56.992168 
	C212.195938,56.014759 213.793991,54.652874 213.403732,52.358917 
	C212.996277,49.963978 210.963928,49.402931 208.832748,49.361252 
	C205.667816,49.299355 202.494003,49.431385 199.337891,49.245106 
	C195.357498,49.010178 192.289307,47.335102 191.180984,43.156330 
	C190.077545,38.996044 191.953461,36.021778 195.147476,33.717609 
	C199.626221,30.486631 204.784561,30.348431 210.005127,30.820614 
	C211.370148,30.944073 212.777283,31.497807 212.680222,33.190731 
	C212.574829,35.028988 211.387024,35.622231 209.546753,35.460403 
	C206.401154,35.183796 203.217117,34.889259 200.218124,36.349136 
	C198.019745,37.419285 195.955353,38.744804 196.487411,41.568001 
	C196.987595,44.221966 199.335754,44.552910 201.550690,44.664585 
	C203.544983,44.765129 205.548355,44.686451 207.547729,44.684311 
	C214.452179,44.676922 217.344116,46.324986 218.564606,50.964531 
	C219.705154,55.300060 217.738708,58.395878 211.363419,61.865917 
z"/>
<path fill="#000000" opacity="1.000000" stroke="none" 
	d="
M91.322189,80.519646 
	C92.299889,75.482574 94.534485,76.524460 96.873665,79.200432 
	C103.106606,86.330757 109.378365,93.432236 115.410324,100.730621 
	C117.789734,103.609596 119.541618,103.730553 122.222137,101.141724 
	C125.800438,97.685837 129.745880,94.609360 133.544952,91.383255 
	C134.757690,90.353409 135.997726,89.539459 137.361084,91.219070 
	C138.644012,92.799591 137.879196,93.997292 136.646332,95.060844 
	C131.112061,99.835052 125.547943,104.574692 120.018509,109.354469 
	C118.001366,111.098122 116.589241,110.409470 115.041092,108.568359 
	C107.236931,99.287323 99.346237,90.079048 91.322189,80.519646 
z"/>
<path fill="#000000" opacity="1.000000" stroke="none" 
	d="
M58.772598,340.772095 
	C55.330555,343.844299 52.997128,347.611267 49.127502,349.884277 
	C46.449921,347.577667 46.963585,345.682922 49.120167,343.560333 
	C53.392143,339.355743 57.560024,335.043396 61.697197,330.705292 
	C62.782742,329.567047 64.427315,328.763275 64.585915,326.366638 
	C57.089931,326.013611 49.664715,325.605377 42.234329,325.344116 
	C39.447613,325.246124 37.235859,324.792938 37.418118,320.638885 
	C48.201180,320.768829 58.984352,320.164886 69.612953,321.997528 
	C73.035789,322.587708 72.937675,325.751587 70.705574,328.188965 
	C66.881706,332.364471 62.922146,336.415710 58.772598,340.772095 
z"/>
<path fill="#000000" opacity="1.000000" stroke="none" 
	d="
M460.203247,240.934021 
	C463.172607,240.906860 465.671875,240.877731 468.171204,240.869476 
	C470.417480,240.862045 472.635681,240.893555 472.825287,237.753189 
	C472.906921,236.401016 473.771942,235.687042 475.134460,235.619278 
	C476.645966,235.544098 477.243134,236.468933 477.283661,237.779083 
	C477.361267,240.290237 478.974518,240.703537 481.006775,240.731674 
	C482.595795,240.753662 484.036987,241.061905 484.135834,243.116074 
	C484.230316,245.079758 482.947205,245.918732 481.356781,245.945770 
	C477.477966,246.011780 477.159973,248.240326 477.599060,251.304245 
	C477.827240,252.896561 478.094086,254.926712 475.645111,255.118942 
	C473.234589,255.308151 472.950531,253.292206 473.091705,251.682526 
	C473.539490,246.576782 470.635895,245.940277 466.578918,246.237808 
	C463.428009,246.468872 460.246643,246.248138 457.085480,246.383728 
	C451.610352,246.618546 449.973175,248.526215 450.722321,253.910019 
	C450.918213,255.317780 451.388794,256.592499 449.635132,257.173615 
	C447.655426,257.829620 446.995514,256.355804 446.366669,254.955124 
	C443.703064,249.021942 446.930908,242.772049 453.289764,241.667130 
	C455.415436,241.297775 457.584167,241.176056 460.203247,240.934021 
z"/>
<path fill="#000000" opacity="1.000000" stroke="none" 
	d="
M154.242798,51.874645 
	C153.072235,50.771351 152.266846,49.384613 153.445374,48.671886 
	C156.299606,46.945782 156.669830,44.900780 155.368088,42.051605 
	C154.747025,40.692253 155.781250,39.939125 156.979218,39.457737 
	C158.033279,39.034176 158.928833,39.107204 159.580902,40.128407 
	C160.379517,41.379135 161.157486,42.643055 161.903839,43.836426 
	C164.222427,44.138100 165.830017,42.722713 167.671356,42.052502 
	C169.013672,41.563919 170.310684,41.310646 171.082520,42.920517 
	C171.820023,44.458832 171.208557,45.714138 169.712326,46.061405 
	C162.608444,47.710178 164.723007,51.821411 166.825928,56.097797 
	C168.147446,58.785175 169.130859,61.639328 170.462082,64.321320 
	C172.706863,68.843842 174.483078,69.376648 178.611832,66.770462 
	C180.087555,65.838943 181.536957,64.558418 182.896606,66.440903 
	C184.247421,68.311096 182.500351,69.498444 181.266891,70.546906 
	C175.851501,75.150070 169.606644,73.968582 166.358917,67.574379 
	C164.401505,63.720589 162.631195,59.743637 161.146118,55.686840 
	C159.925217,52.351761 158.171402,50.734158 154.242798,51.874645 
z"/>
<path fill="#000000" opacity="1.000000" stroke="none" 
	d="
M348.220703,34.330536 
	C343.900848,47.221516 337.837463,59.088696 332.829224,71.400276 
	C332.208405,72.926430 331.523468,74.608940 329.199097,73.589218 
	C327.080383,72.659721 327.258301,71.124718 327.979065,69.457344 
	C332.994385,57.854969 338.000641,46.248425 343.089569,34.678318 
	C344.296356,31.934622 346.149841,31.953926 348.220703,34.330536 
z"/>
<path fill="#000000" opacity="1.000000" stroke="none" 
	d="
M52.700165,148.351425 
	C51.885151,144.235123 54.045185,143.968948 57.408298,144.867798 
	C56.493454,141.830383 56.620914,139.068283 57.859055,136.455002 
	C58.410526,135.291031 58.858513,133.817795 60.687691,134.414688 
	C62.341042,134.954224 62.947090,135.913452 62.579144,137.816208 
	C61.050171,145.722885 62.299160,148.171021 69.443275,152.058548 
	C72.361092,153.646317 75.298363,155.200394 78.181343,156.849258 
	C79.708282,157.722549 81.797966,158.421844 80.522987,160.918427 
	C79.331787,163.250961 77.625702,162.576202 75.908195,161.606430 
	C68.247551,157.280899 60.587261,152.954727 52.700165,148.351425 
z"/>
<path fill="#000000" opacity="1.000000" stroke="none" 
	d="
M16.431803,278.816315 
	C13.753419,275.838654 15.028351,274.265350 18.025391,273.911224 
	C30.410395,272.447998 42.812172,271.124420 55.214294,269.811005 
	C56.895176,269.633026 58.717300,269.727539 59.014854,272.014008 
	C59.357635,274.648041 57.401302,274.994904 55.525406,275.182434 
	C42.626141,276.471954 29.722683,277.719513 16.431803,278.816315 
z"/>
<path fill="#000000" opacity="1.000000" stroke="none" 
	d="
M303.565186,454.302612 
	C302.489868,450.211090 301.520050,446.513153 300.501190,442.828766 
	C300.031067,441.128723 299.550293,439.444885 301.994385,438.943146 
	C303.799866,438.572479 304.786804,439.500305 305.247681,441.205353 
	C308.543762,453.398773 311.879761,465.581482 315.143829,477.783447 
	C315.594971,479.469818 315.574860,481.115173 313.289703,481.680908 
	C310.699982,482.322021 310.553986,480.208984 310.153473,478.780609 
	C307.908813,470.775909 305.803497,462.732147 303.565186,454.302612 
z"/>
<path fill="#000000" opacity="1.000000" stroke="none" 
	d="
M462.724060,309.338379 
	C455.908966,307.589447 449.480804,305.949524 443.082306,304.201080 
	C441.244781,303.698975 438.838745,303.428162 439.662720,300.449219 
	C440.521332,297.344971 442.824127,298.704712 444.548828,299.136810 
	C451.625580,300.909821 458.675323,302.796661 465.702301,304.758698 
	C467.788483,305.341187 471.019592,305.452881 470.041168,308.834808 
	C469.131317,311.979706 466.495300,309.994354 464.554138,309.819672 
	C464.068390,309.775970 463.599121,309.548950 462.724060,309.338379 
z"/>
<path fill="#000000" opacity="1.000000" stroke="none" 
	d="
M322.379700,57.231991 
	C321.282715,60.432972 320.274231,63.251080 319.317444,66.086617 
	C318.708405,67.891670 317.778259,69.044830 315.654022,68.263168 
	C313.733582,67.556488 313.831238,66.180977 314.383911,64.605232 
	C317.190277,56.603825 319.964966,48.591248 322.797577,40.599197 
	C323.299377,39.183514 323.866791,37.754120 325.979004,38.403469 
	C328.186066,39.081978 328.246796,40.423439 327.588196,42.264854 
	C325.853088,47.115955 324.184906,51.990993 322.379700,57.231991 
z"/>
<path fill="#000000" opacity="1.000000" stroke="none" 
	d="
M178.634338,25.245281 
	C182.299133,30.233452 182.279297,37.233444 178.572266,40.198246 
	C176.874985,36.629520 176.459274,32.706261 174.267105,29.333307 
	C172.585190,26.745441 175.148849,24.898651 178.634338,25.245281 
z"/>
<path fill="#000000" opacity="1.000000" stroke="none" 
	d="
M90.972939,117.953239 
	C92.478989,120.973785 91.871307,123.210922 89.334648,124.688927 
	C87.646614,125.672485 85.789925,125.556694 84.207115,124.246964 
	C82.251663,122.628891 81.929695,120.366386 83.011620,118.372345 
	C85.065163,114.587601 87.897980,115.032539 90.972939,117.953239 
z"/>
<path fill="#000000" opacity="1.000000" stroke="none" 
	d="
M274.340332,465.000671 
	C271.723633,463.641663 270.424683,461.860535 271.101715,459.221405 
	C271.587341,457.328339 272.841583,455.998566 274.885834,455.818787 
	C277.782745,455.564087 279.841064,456.908142 280.148102,459.797974 
	C280.548553,463.566772 278.314423,465.151093 274.340332,465.000671 
z"/>
<path fill="#000000" opacity="1.000000" stroke="none" 
	d="
M326.621399,31.261223 
	C325.367706,28.525717 326.502777,27.117323 328.709747,26.437670 
	C330.089294,26.012829 331.338470,26.568350 332.121887,27.822027 
	C333.032013,29.278502 332.815186,30.702612 331.613556,31.874258 
	C329.956299,33.490097 328.344940,33.008297 326.621399,31.261223 
z"/>
<path fill="#000000" opacity="1.000000" stroke="none" 
	d="
M477.519135,313.789734 
	C475.581665,311.873169 475.432617,310.113586 477.168945,308.451233 
	C478.205048,307.459229 479.515900,307.326782 480.779266,308.026520 
	C482.072662,308.742920 482.509521,309.969604 482.212189,311.359833 
	C481.706970,313.721924 480.166382,314.525970 477.519135,313.789734 
z"/>
</svg>